<?xml version="1.0" encoding="utf-8"?>
<!-- Generator: Adobe Illustrator 17.0.0, SVG Export Plug-In . SVG Version: 6.00 Build 0)  -->
<!DOCTYPE svg PUBLIC "-//W3C//DTD SVG 1.1//EN" "http://www.w3.org/Graphics/SVG/1.1/DTD/svg11.dtd">
<svg version="1.1" id="Layer_1" xmlns="http://www.w3.org/2000/svg" xmlns:xlink="http://www.w3.org/1999/xlink" x="0px" y="0px"
	 width="32px" height="32px" viewBox="0 0 32 32" enable-background="new 0 0 32 32" xml:space="preserve">
<g>
	<circle cx="8.661" cy="3.28" r="3.31"/>
	<path d="M10.285,6.95L9.498,7.28C9.34,7.003,9.045,6.815,8.701,6.815c-0.343,0-0.635,0.184-0.8,0.458L7.117,6.937
		C7.001,6.89,6.909,6.898,6.805,6.968c-0.104,0.07-0.128,0.185-0.128,0.309v0.979c0,0.12,0.015,0.23,0.11,0.299
		c0.097,0.069,0.171,0.091,0.285,0.059c0.309-0.096,0.69-0.212,0.911-0.279C8.154,8.54,8.41,8.672,8.701,8.672
		c0.275,0,0.529-0.123,0.699-0.318c0.221,0.068,0.615,0.184,0.929,0.279c0.112,0.032,0.236,0.012,0.335-0.06
		c0.093-0.07,0.157-0.18,0.157-0.297V7.292c0-0.126-0.072-0.241-0.178-0.311C10.541,6.913,10.398,6.901,10.285,6.95z"/>
	<path d="M31.33,3.869V2.803L16.37,2.824v1.044l1.074,0.009h0.007l-0.027,5.838v0.002c0,0.031-0.079,0.065-0.123,0.104l-2.626,2.337
		l-3.277-4.036L8.659,11.69L5.886,7.857c-1.317,0.905-3.124,3.06-3.628,7.856c-0.001,0-0.001,0.018-0.002,0.023
		c-0.01,0.097-0.02,0.193-0.028,0.292c-0.001,0.015-0.003,0.029-0.003,0.043c-0.001,0.014-0.003,0.028-0.004,0.043l-1.551,0.62
		l1.61,4.026l0.706-0.282c-0.511-0.265-0.86-0.786-0.864-1.369c0-0.157,0-0.308,0.002-0.461c0.041,0.711,0.625,1.314,1.34,1.314
		h0.001c0.744,0,1.44-0.647,1.44-1.391c-0.001-0.672-0.003-1.3,0.019-1.878c0.036-0.896,0.07-1.494,0.296-2.174
		c0.064-0.19,0.082-0.312,0.17-0.487l2.132-0.757l1.818,4.549l-0.57,0.229l-1.572-3.928l-1.397,0.558
		c-0.337,1.2-0.347,2.667-0.34,4.422c0,0.141,0.276,0.586,0.346,0.714L5.807,30.682C5.807,31.425,6.422,32,7.16,32
		c0.742,0,1.354-0.521,1.354-1.361H8.87C8.87,31.479,9.557,32,10.299,32c0.74,0,1.429-0.571,1.429-1.312l0.001-10.867
		c0.303-0.498,0.303-1.082,0.304-1.706l0-4.985l1.459,1.81c0.233,0.283,0.579,0.46,0.943,0.487c0.034,0.005,0.062,0.007,0.097,0.007
		c0.327,0,0.642-0.111,0.887-0.332l1.181-1.039l0.85-0.009l-0.001,8.311h-1.066l0,1.066h1.066l0,8.171l12.8,0.002l0.001-8.171h1.066
		l0-1.067h-1.066l0.001-8.314l0,0l1.065-0.002l0.015-1.067l-1.053-0.002l0,0l-0.013-9.102h-0.007L31.33,3.869z M25.992,26.846
		h-4.285v-2.179h4.285V26.846z M21.708,18.065v-2.107h4.285v2.107H21.708z M25.992,8.372h-4.285V6.195h4.285V8.372z"/>
</g>
</svg>
